PathFileType	4	(X/Y/Z)	c:/Users/goper/Files/vsCode/490R/osim_files/A05/A05_Fast_01.trc
DataRate	CameraRate	NumFrames	NumMarkers	Units                	OrigDataRate	OrigDataStartFrame	OrigNumFrames
250.00	250.00	9	36	mm	250.0	1490	2383
                Frame#	Time	LPSIS			LASIS			LTH1			LTH2			LTH3			LTH4			LLFE			LMFE			LSH1			LSH2			LSH3			LSH4			LLMAL			LMMAL			LCAL			LMTP5			LTOE			LMTP1			RPSIS			RASIS			RTH1			RTH2			RTH3			RTH4			RLFE			RMFE			RSH1			RSH2			RSH3			RSH4			RLMAL			RMMAL			RCAL			RMTP1			RTOE			RMTP5		
		X1	Y1	Z1	X2	Y2	Z2	X3	Y3	Z3	X4	Y4	Z4	X5	Y5	Z5	X6	Y6	Z6	X7	Y7	Z7	X8	Y8	Z8	X9	Y9	Z9	X10	Y10	Z10	X11	Y11	Z11	X12	Y12	Z12	X13	Y13	Z13	X14	Y14	Z14	X15	Y15	Z15	X16	Y16	Z16	X17	Y17	Z17	X18	Y18	Z18	X19	Y19	Z19	X20	Y20	Z20	X21	Y21	Z21	X22	Y22	Z22	X23	Y23	Z23	X24	Y24	Z24	X25	Y25	Z25	X26	Y26	Z26	X27	Y27	Z27	X28	Y28	Z28	X29	Y29	Z29	X30	Y30	Z30	X31	Y31	Z31	X32	Y32	Z32	X33	Y33	Z33	X34	Y34	Z34	X35	Y35	Z35	X36	Y36	Z36

1490	5.95600	-1612.92285	1001.19727	377.87997	-1793.37500	955.69617	500.07098	0.00000	0.00000	0.00000	-1610.48193	652.71729	543.94281	-1665.87622	691.33289	565.44080	-1660.20642	648.41541	562.65308	-1628.68982	471.82874	545.18018	-1638.14478	463.22842	446.44461	-1539.16907	418.94757	548.23456	-1509.54102	386.75476	547.79449	-1581.03174	374.59644	542.90198	-1546.85645	348.69476	544.84271	-1382.29895	198.49336	537.25134	-1388.99390	198.16640	446.39017	-1289.07019	205.32707	477.72638	-1441.02771	71.31949	569.40857	-1493.46997	56.01451	510.98190	-1463.93738	74.64662	460.53943	-1626.16077	1003.65540	296.27899	-1818.54053	959.92834	208.62086	-1876.08813	605.39807	150.04405	-1899.84338	571.23303	159.53427	-1924.86829	635.41144	173.82594	-1941.54175	591.45673	181.32217	-1887.41357	522.78137	163.13968	-1913.40540	506.87646	303.09045	-1895.72949	259.63315	162.86986	0.00000	0.00000	0.00000	-1956.85022	262.22064	173.78452	-1951.35303	214.03406	176.85255	-1912.88794	105.94835	194.43190	-1955.60925	133.69757	280.93570	-1863.67322	67.44314	272.61514	-2074.95776	57.67921	272.98148	-2105.90942	67.42821	218.82433	-2040.72070	44.75694	157.78589
1491	5.96000	-1616.81287	1002.11517	376.75705	-1797.64368	956.91296	499.21494	0.00000	0.00000	0.00000	-1617.67810	652.30859	543.77515	-1672.68701	691.48242	565.02252	-1667.59595	648.49414	562.22925	-1637.74475	471.57361	544.97266	-1646.88342	463.03119	446.20236	-1547.36292	420.04810	547.91895	-1517.25720	388.28879	547.46832	-1588.35266	374.85117	542.48651	-1553.86670	349.72845	544.33386	-1387.00903	202.41843	536.37793	-1393.95386	201.70451	445.64142	-1294.00879	211.00102	476.57730	-1443.09961	74.00237	569.09912	-1495.94531	57.43824	511.11359	-1466.58691	76.53028	460.54773	-1630.46021	1004.48767	295.21228	-1822.86230	960.99005	207.81305	-1877.10413	605.07721	150.50470	-1901.05859	570.73859	159.59207	-1927.09375	634.66040	172.78088	0.00000	0.00000	0.00000	-1888.82446	522.49481	163.10629	-1916.07935	506.97476	303.54367	-1897.00159	259.95694	163.28809	-1901.83643	213.97386	173.18321	-1958.17407	262.12827	174.31142	-1952.50049	214.01831	177.39323	-1912.86597	105.75761	194.13640	-1955.98657	133.59770	281.42685	-1863.74988	67.52657	272.80466	-2075.18848	57.41637	273.19699	-2106.12305	67.08443	219.07736	-2040.26086	44.38583	157.45491
1492	5.96400	0.00000	0.00000	0.00000	-1801.90308	958.15442	498.49121	0.00000	0.00000	0.00000	-1624.90686	651.83301	543.45996	-1679.56836	691.57928	564.56573	-1674.85352	648.58167	561.81097	-1646.84863	471.27579	544.67816	-1655.72461	462.86270	445.87961	-1555.66272	421.19217	547.59515	-1525.07324	389.93744	547.10693	-1596.15002	375.60367	541.81879	-1561.11865	350.72913	543.83643	-1391.85596	206.40758	535.63348	-1399.38147	205.13321	445.01376	-1299.16162	216.69246	475.43991	-1445.31201	76.76056	568.75757	-1498.54297	58.82248	511.34030	-1469.39917	78.55109	460.56747	-1634.67273	1005.27417	294.23376	-1826.18250	961.28552	207.38940	-1878.82739	604.76776	150.99489	-1902.56384	570.23749	159.93559	-1929.39539	634.01898	172.10306	0.00000	0.00000	0.00000	-1890.59192	522.64020	163.26927	-1917.53796	506.42603	303.83014	-1898.29626	260.23071	163.69566	-1902.18750	214.06612	173.16434	-1959.11804	262.35504	174.53018	-1953.51868	214.06728	177.83682	-1913.32385	105.99329	194.42477	-1955.51636	133.06245	280.47891	-1863.85864	67.58359	272.95261	-2075.38647	57.23288	273.38046	-2106.23145	66.80592	219.25235	-2040.33923	44.50685	157.55853
1493	5.96800	-1623.88977	1003.64087	374.52927	-1806.03870	959.37067	497.74695	0.00000	0.00000	0.00000	-1632.21838	651.38263	543.21405	-1686.46045	691.70612	564.09888	-1682.20154	648.64618	561.39197	-1655.97229	471.08929	544.32343	-1664.77014	462.55301	446.83594	-1564.03577	422.25330	547.22693	-1532.90320	391.54492	546.63257	-1603.62488	375.92612	541.48083	-1568.47168	351.80975	543.22449	-1396.85938	210.30444	534.63525	-1405.01367	208.71376	443.90970	-1304.72742	222.09344	474.01917	-1447.83582	79.58617	568.47327	-1501.47021	60.44186	511.67880	-1472.33032	80.59189	460.58609	-1638.83850	1006.02362	293.26797	-1830.34924	962.22321	206.56532	-1880.85413	604.60815	151.48871	-1904.38293	569.92316	160.40909	-1931.75635	633.56848	172.12393	0.00000	0.00000	0.00000	0.00000	0.00000	0.00000	-1919.43848	506.23230	304.47870	-1899.49255	260.54630	163.95845	-1903.88000	214.49246	173.73148	-1960.29431	262.34833	174.93703	-1954.49158	214.06175	178.21999	-1913.80151	106.11643	194.62558	-1956.38232	133.09254	281.05914	-1864.13550	68.35486	273.62866	-2075.55908	57.02475	273.55646	-2106.39526	66.54070	219.42253	-2040.41284	44.57032	157.65593
1494	5.97200	-1627.74268	1004.55463	373.41739	-1810.05896	960.69312	497.09564	0.00000	0.00000	0.00000	-1639.33582	651.03229	542.96179	-1693.28723	691.90930	563.74506	-1689.49683	648.83234	560.94452	-1665.27136	470.58936	543.91858	-1673.68848	462.56882	446.29205	-1572.42969	424.51868	546.94495	-1540.80676	393.20883	546.15369	-1611.37085	376.50320	540.81354	-1575.79407	352.91318	542.56860	-1402.03845	214.29504	533.61670	-1410.67639	212.30911	443.05740	-1310.52075	227.59322	472.39252	-1450.53125	82.63243	568.22711	-1504.78796	62.22938	512.28662	-1475.65674	82.47747	460.70959	-1642.26160	1007.15369	292.06375	-1834.48914	963.09711	205.88484	-1883.38708	604.73956	152.02473	-1906.80420	569.93091	161.02606	-1934.53992	633.45819	172.84171	0.00000	0.00000	0.00000	0.00000	0.00000	0.00000	-1920.82520	505.95474	305.02240	-1900.78601	260.90381	164.19658	0.00000	0.00000	0.00000	-1961.63074	262.40143	175.40192	-1955.46484	214.13116	178.55667	-1914.14600	106.36162	194.67673	-1956.63977	133.07446	281.44559	-1864.20557	68.42125	273.68402	-2075.65332	56.79657	273.72018	-2106.50146	66.28993	219.55386	-2040.51147	44.62712	157.74133
1495	5.97600	-1631.49731	1005.47559	372.50757	-1813.91589	961.94940	496.45932	0.00000	0.00000	0.00000	-1646.63586	650.70483	542.72461	-1700.12268	692.11212	563.27869	-1696.76196	649.02588	560.49060	-1674.05713	470.80466	543.50800	-1683.21045	463.50623	444.25269	-1580.80811	425.83813	546.47906	-1548.77356	394.89117	545.60468	-1619.15161	377.24716	540.18286	-1583.12231	354.04620	541.91815	-1407.23950	218.34952	532.45618	-1416.64062	215.64281	442.10492	-1316.47888	232.81512	470.32086	-1453.31543	86.06434	568.25916	-1508.39551	64.36586	513.24835	-1479.43384	84.47664	461.28931	-1646.86572	1007.58490	291.40961	-1838.65503	963.99872	205.24519	-1886.33118	604.92755	152.51431	-1909.49219	570.04407	161.90134	-1937.39832	633.41510	173.71718	0.00000	0.00000	0.00000	0.00000	0.00000	0.00000	-1922.01038	505.78479	305.52808	-1901.95386	261.15359	164.26727	-1904.90332	213.78529	173.87743	-1962.74109	262.45825	175.76740	-1956.46387	214.20129	178.88374	-1914.53247	106.50945	194.72617	-1957.04028	133.38924	282.88358	-1864.22815	68.53335	273.72040	-2075.71924	56.60236	273.80792	-2106.59961	66.10921	219.61935	-2040.57971	44.70700	157.80299
1496	5.98000	-1635.31445	1006.44012	371.61786	-1817.80493	963.37848	495.93286	0.00000	0.00000	0.00000	-1653.66541	650.48523	542.42743	-1706.84766	692.40753	562.82971	-1703.95068	649.31696	560.08728	-1683.12830	470.85849	543.12579	-1692.09973	463.66782	443.81696	-1589.25049	427.10406	545.97302	-1556.77808	396.63339	545.03326	-1627.10608	378.02371	539.66736	-1590.68799	355.23163	541.26282	-1412.46777	222.48911	531.12036	-1422.78809	218.84586	440.93192	-1322.51160	237.75082	468.05096	-1456.31482	89.95242	568.70239	-1511.62964	66.90016	514.49017	-1483.45532	86.99076	462.02521	-1650.80688	1008.43536	290.51865	-1842.70312	964.78979	204.45261	-1889.59802	605.26160	152.83432	-1912.36804	570.23529	162.81654	-1940.58032	633.56042	174.68340	0.00000	0.00000	0.00000	0.00000	0.00000	0.00000	-1923.13257	505.72855	305.96265	-1903.25122	261.45795	164.43381	-1906.29688	214.59435	174.08127	-1963.98560	262.51810	176.19357	-1957.45703	214.31685	179.22079	-1914.82153	106.68522	194.73383	-1957.15417	133.41824	283.11023	-1863.55652	67.27709	273.02182	-2075.81519	56.44170	273.88528	-2106.70947	65.99811	219.73088	-2040.62366	44.73812	157.82495
1497	5.98400	-1639.13733	1007.48578	370.64328	-1821.55310	964.83014	495.47958	0.00000	0.00000	0.00000	-1660.77161	650.36096	542.05615	-1713.44421	692.89044	562.42950	-1711.00244	649.70831	559.67523	-1692.10645	470.96985	542.75488	-1701.59167	464.03677	444.11703	-1597.81152	428.60397	545.54071	-1564.83484	398.42053	544.42499	-1634.47803	379.38760	538.58282	-1597.68433	357.33087	540.59436	-1417.72998	226.75870	529.94019	-1429.04944	221.99670	439.68466	-1328.58325	242.28699	465.76706	-1459.70056	94.02061	569.18964	-1515.37683	69.88639	515.84680	-1488.00317	89.69374	462.93439	-1654.09851	1009.58118	289.47699	-1846.70984	965.50189	203.78981	-1893.23486	605.73883	152.95476	-1915.49744	570.54010	163.57184	-1944.08032	633.66046	175.62872	0.00000	0.00000	0.00000	0.00000	0.00000	0.00000	-1924.00903	505.73114	306.26755	-1904.39929	261.81079	164.45180	-1906.90161	214.42824	174.01508	-1965.50391	262.36234	176.76505	-1958.41638	214.37244	179.56798	-1915.10278	106.92319	194.71707	-1957.22314	133.41983	283.30179	-1863.60901	67.41030	273.01974	-2075.86377	56.31075	273.94009	-2106.76025	65.84676	219.78496	-2040.70581	44.79478	157.84631
1498	5.98800	-1642.88257	1008.58795	369.86630	-1825.32190	966.34277	495.12451	0.00000	0.00000	0.00000	-1667.69128	650.36755	541.75476	-1719.94922	693.48584	562.01373	-1718.06030	650.32581	559.28082	-1701.02136	471.31262	542.46143	-1710.45984	464.43268	443.81100	-1606.19971	430.08646	545.08307	-1572.85596	400.30246	543.88428	-1642.37354	380.43912	537.95300	-1603.98792	360.16534	540.19061	-1423.32825	230.84061	528.76575	-1435.57056	225.26454	438.69867	-1335.02783	246.73143	463.48099	-1463.45569	97.95480	569.57623	-1519.56079	72.86634	517.20831	-1492.92114	92.46722	463.81390	-1658.59497	1010.11572	288.99545	-1850.69543	966.27594	203.10558	-1897.14075	606.25787	152.71323	-1918.85864	570.95740	164.01060	-1947.66565	633.73981	176.65430	0.00000	0.00000	0.00000	0.00000	0.00000	0.00000	-1923.68713	505.27716	306.14926	-1905.59570	262.08951	164.46419	-1907.33142	213.60661	174.17827	-1966.64502	262.42813	177.05113	-1959.31860	214.48775	179.87161	-1915.45850	107.12763	194.71339	-1957.29663	133.47865	283.47806	-1863.63489	67.54893	273.04294	-2075.94458	56.20819	274.02017	-2106.80688	65.74235	219.87929	-2040.75476	44.88551	157.84039
